<svg xmlns="http://www.w3.org/2000/svg" viewBox="0 0 240 220"><rect x="120" y="0" width="9" height="9" rx="2.2" fill="#2f6f5e"/><rect x="80" y="10" width="9" height="9" rx="2.2" fill="#2f6f5e"/><rect x="90" y="10" width="9" height="9" rx="2.2" fill="#2f6f5e"/><rect x="100" y="10" width="9" height="9" rx="2.2" fill="#2f6f5e"/><rect x="110" y="10" width="9" height="9" rx="2.2" fill="#2f6f5e"/><rect x="120" y="10" width="9" height="9" rx="2.2" fill="#2f6f5e"/><rect x="70" y="20" width="9" height="9" rx="2.2" fill="#2f6f5e"/><rect x="80" y="20" width="9" height="9" rx="2.2" fill="#2f6f5e"/><rect x="90" y="20" width="9" height="9" rx="2.2" fill="#2f6f5e"/><rect x="100" y="20" width="9" height="9" rx="2.2" fill="#b5482f"/><rect x="110" y="20" width="9" height="9" rx="2.2" fill="#2f6f5e"/><rect x="120" y="20" width="9" height="9" rx="2.2" fill="#2f6f5e"/><rect x="130" y="20" width="9" height="9" rx="2.2" fill="#2f6f5e"/><rect x="60" y="30" width="9" height="9" rx="2.2" fill="#2f6f5e"/><rect x="70" y="30" width="9" height="9" rx="2.2" fill="#2f6f5e"/><rect x="80" y="30" width="9" height="9" rx="2.2" fill="#2f6f5e"/><rect x="90" y="30" width="9" height="9" rx="2.2" fill="#2f6f5e"/><rect x="100" y="30" width="9" height="9" rx="2.2" fill="#2f6f5e"/><rect x="110" y="30" width="9" height="9" rx="2.2" fill="#2f6f5e"/><rect x="120" y="30" width="9" height="9" rx="2.2" fill="#2f6f5e"/><rect x="130" y="30" width="9" height="9" rx="2.2" fill="#2f6f5e"/><rect x="60" y="40" width="9" height="9" rx="2.2" fill="#2f6f5e"/><rect x="70" y="40" width="9" height="9" rx="2.2" fill="#2f6f5e"/><rect x="80" y="40" width="9" height="9" rx="2.2" fill="#2f6f5e"/><rect x="90" y="40" width="9" height="9" rx="2.2" fill="#2f6f5e"/><rect x="100" y="40" width="9" height="9" rx="2.2" fill="#2f6f5e"/><rect x="110" y="40" width="9" height="9" rx="2.2" fill="#2f6f5e"/><rect x="120" y="40" width="9" height="9" rx="2.2" fill="#2f6f5e"/><rect x="130" y="40" width="9" height="9" rx="2.2" fill="#2f6f5e"/><rect x="140" y="40" width="9" height="9" rx="2.2" fill="#2f6f5e"/><rect x="200" y="40" width="9" height="9" rx="2.2" fill="#2f6f5e"/><rect x="60" y="50" width="9" height="9" rx="2.2" fill="#2f6f5e"/><rect x="70" y="50" width="9" height="9" rx="2.2" fill="#2f6f5e"/><rect x="80" y="50" width="9" height="9" rx="2.2" fill="#2f6f5e"/><rect x="90" y="50" width="9" height="9" rx="2.2" fill="#2f6f5e"/><rect x="100" y="50" width="9" height="9" rx="2.2" fill="#2f6f5e"/><rect x="110" y="50" width="9" height="9" rx="2.2" fill="#2f6f5e"/><rect x="120" y="50" width="9" height="9" rx="2.2" fill="#2f6f5e"/><rect x="130" y="50" width="9" height="9" rx="2.2" fill="#2f6f5e"/><rect x="140" y="50" width="9" height="9" rx="2.2" fill="#2f6f5e"/><rect x="150" y="50" width="9" height="9" rx="2.2" fill="#2f6f5e"/><rect x="60" y="60" width="9" height="9" rx="2.2" fill="#2f6f5e"/><rect x="70" y="60" width="9" height="9" rx="2.2" fill="#2f6f5e"/><rect x="80" y="60" width="9" height="9" rx="2.2" fill="#2f6f5e"/><rect x="90" y="60" width="9" height="9" rx="2.2" fill="#2f6f5e"/><rect x="100" y="60" width="9" height="9" rx="2.2" fill="#2f6f5e"/><rect x="110" y="60" width="9" height="9" rx="2.2" fill="#2f6f5e"/><rect x="120" y="60" width="9" height="9" rx="2.2" fill="#2f6f5e"/><rect x="130" y="60" width="9" height="9" rx="2.2" fill="#2f6f5e"/><rect x="140" y="60" width="9" height="9" rx="2.2" fill="#2f6f5e"/><rect x="150" y="60" width="9" height="9" rx="2.2" fill="#2f6f5e"/><rect x="50" y="70" width="9" height="9" rx="2.2" fill="#2f6f5e"/><rect x="60" y="70" width="9" height="9" rx="2.2" fill="#2f6f5e"/><rect x="70" y="70" width="9" height="9" rx="2.2" fill="#2f6f5e"/><rect x="80" y="70" width="9" height="9" rx="2.2" fill="#2f6f5e"/><rect x="90" y="70" width="9" height="9" rx="2.2" fill="#2f6f5e"/><rect x="100" y="70" width="9" height="9" rx="2.2" fill="#2f6f5e"/><rect x="110" y="70" width="9" height="9" rx="2.2" fill="#b5482f"/><rect x="120" y="70" width="9" height="9" rx="2.2" fill="#2f6f5e"/><rect x="130" y="70" width="9" height="9" rx="2.2" fill="#2f6f5e"/><rect x="140" y="70" width="9" height="9" rx="2.2" fill="#2f6f5e"/><rect x="150" y="70" width="9" height="9" rx="2.2" fill="#2f6f5e"/><rect x="60" y="80" width="9" height="9" rx="2.2" fill="#2f6f5e"/><rect x="70" y="80" width="9" height="9" rx="2.2" fill="#2f6f5e"/><rect x="80" y="80" width="9" height="9" rx="2.2" fill="#2f6f5e"/><rect x="90" y="80" width="9" height="9" rx="2.2" fill="#2f6f5e"/><rect x="100" y="80" width="9" height="9" rx="2.2" fill="#2f6f5e"/><rect x="110" y="80" width="9" height="9" rx="2.2" fill="#2f6f5e"/><rect x="120" y="80" width="9" height="9" rx="2.2" fill="#2f6f5e"/><rect x="130" y="80" width="9" height="9" rx="2.2" fill="#2f6f5e"/><rect x="140" y="80" width="9" height="9" rx="2.2" fill="#2f6f5e"/><rect x="150" y="80" width="9" height="9" rx="2.2" fill="#2f6f5e"/><rect x="60" y="90" width="9" height="9" rx="2.2" fill="#2f6f5e"/><rect x="70" y="90" width="9" height="9" rx="2.2" fill="#2f6f5e"/><rect x="80" y="90" width="9" height="9" rx="2.2" fill="#2f6f5e"/><rect x="90" y="90" width="9" height="9" rx="2.2" fill="#2f6f5e"/><rect x="100" y="90" width="9" height="9" rx="2.2" fill="#2f6f5e"/><rect x="110" y="90" width="9" height="9" rx="2.2" fill="#2f6f5e"/><rect x="120" y="90" width="9" height="9" rx="2.2" fill="#2f6f5e"/><rect x="130" y="90" width="9" height="9" rx="2.2" fill="#2f6f5e"/><rect x="140" y="90" width="9" height="9" rx="2.2" fill="#2f6f5e"/><rect x="150" y="90" width="9" height="9" rx="2.2" fill="#2f6f5e"/><rect x="70" y="100" width="9" height="9" rx="2.2" fill="#2f6f5e"/><rect x="80" y="100" width="9" height="9" rx="2.2" fill="#2f6f5e"/><rect x="90" y="100" width="9" height="9" rx="2.2" fill="#2f6f5e"/><rect x="100" y="100" width="9" height="9" rx="2.2" fill="#2f6f5e"/><rect x="110" y="100" width="9" height="9" rx="2.2" fill="#2f6f5e"/><rect x="120" y="100" width="9" height="9" rx="2.2" fill="#2f6f5e"/><rect x="130" y="100" width="9" height="9" rx="2.2" fill="#2f6f5e"/><rect x="140" y="100" width="9" height="9" rx="2.2" fill="#2f6f5e"/><rect x="150" y="100" width="9" height="9" rx="2.2" fill="#2f6f5e"/><rect x="70" y="110" width="9" height="9" rx="2.2" fill="#2f6f5e"/><rect x="80" y="110" width="9" height="9" rx="2.2" fill="#2f6f5e"/><rect x="90" y="110" width="9" height="9" rx="2.2" fill="#2f6f5e"/><rect x="100" y="110" width="9" height="9" rx="2.2" fill="#2f6f5e"/><rect x="110" y="110" width="9" height="9" rx="2.2" fill="#2f6f5e"/><rect x="120" y="110" width="9" height="9" rx="2.2" fill="#2f6f5e"/><rect x="130" y="110" width="9" height="9" rx="2.2" fill="#2f6f5e"/><rect x="140" y="110" width="9" height="9" rx="2.2" fill="#2f6f5e"/><rect x="150" y="110" width="9" height="9" rx="2.2" fill="#2f6f5e"/><rect x="60" y="120" width="9" height="9" rx="2.2" fill="#2f6f5e"/><rect x="70" y="120" width="9" height="9" rx="2.2" fill="#2f6f5e"/><rect x="80" y="120" width="9" height="9" rx="2.2" fill="#2f6f5e"/><rect x="90" y="120" width="9" height="9" rx="2.2" fill="#2f6f5e"/><rect x="100" y="120" width="9" height="9" rx="2.2" fill="#b5482f"/><rect x="110" y="120" width="9" height="9" rx="2.2" fill="#2f6f5e"/><rect x="120" y="120" width="9" height="9" rx="2.2" fill="#2f6f5e"/><rect x="130" y="120" width="9" height="9" rx="2.2" fill="#2f6f5e"/><rect x="140" y="120" width="9" height="9" rx="2.2" fill="#2f6f5e"/><rect x="150" y="120" width="9" height="9" rx="2.2" fill="#2f6f5e"/><rect x="60" y="130" width="9" height="9" rx="2.2" fill="#2f6f5e"/><rect x="70" y="130" width="9" height="9" rx="2.2" fill="#2f6f5e"/><rect x="80" y="130" width="9" height="9" rx="2.2" fill="#2f6f5e"/><rect x="90" y="130" width="9" height="9" rx="2.2" fill="#2f6f5e"/><rect x="100" y="130" width="9" height="9" rx="2.2" fill="#2f6f5e"/><rect x="110" y="130" width="9" height="9" rx="2.2" fill="#2f6f5e"/><rect x="120" y="130" width="9" height="9" rx="2.2" fill="#2f6f5e"/><rect x="130" y="130" width="9" height="9" rx="2.2" fill="#2f6f5e"/><rect x="140" y="130" width="9" height="9" rx="2.2" fill="#2f6f5e"/><rect x="60" y="140" width="9" height="9" rx="2.2" fill="#2f6f5e"/><rect x="70" y="140" width="9" height="9" rx="2.2" fill="#2f6f5e"/><rect x="80" y="140" width="9" height="9" rx="2.2" fill="#2f6f5e"/><rect x="90" y="140" width="9" height="9" rx="2.2" fill="#2f6f5e"/><rect x="100" y="140" width="9" height="9" rx="2.2" fill="#2f6f5e"/><rect x="110" y="140" width="9" height="9" rx="2.2" fill="#2f6f5e"/><rect x="120" y="140" width="9" height="9" rx="2.2" fill="#2f6f5e"/><rect x="130" y="140" width="9" height="9" rx="2.2" fill="#2f6f5e"/><rect x="60" y="150" width="9" height="9" rx="2.2" fill="#2f6f5e"/><rect x="70" y="150" width="9" height="9" rx="2.2" fill="#2f6f5e"/><rect x="80" y="150" width="9" height="9" rx="2.2" fill="#2f6f5e"/><rect x="50" y="160" width="9" height="9" rx="2.2" fill="#2f6f5e"/><rect x="60" y="160" width="9" height="9" rx="2.2" fill="#2f6f5e"/><rect x="70" y="160" width="9" height="9" rx="2.2" fill="#2f6f5e"/><rect x="80" y="160" width="9" height="9" rx="2.2" fill="#2f6f5e"/><rect x="90" y="160" width="9" height="9" rx="2.2" fill="#2f6f5e"/><rect x="100" y="160" width="9" height="9" rx="2.2" fill="#2f6f5e"/><rect x="60" y="200" width="9" height="9" rx="2.2" fill="#2f6f5e"/><rect x="70" y="200" width="9" height="9" rx="2.2" fill="#2f6f5e"/><rect x="50" y="210" width="9" height="9" rx="2.2" fill="#2f6f5e"/></svg>